<svg id="Layer_1" data-name="Layer 1" xmlns="http://www.w3.org/2000/svg" viewBox="0 0 480.34 124.85"><defs><style>.cls-1{fill:none;}.cls-1,.cls-4,.cls-5{stroke:#231f20;stroke-miterlimit:10;}.cls-2,.cls-4{fill:#231f20;}.cls-3,.cls-5{fill:#fff;}</style></defs><path d="M147.67,82.83s-17.82,18.39-26.86,23.33c0,0-21.11,11.71-21.66-9.31S97.23,17.2,97.23,17.2h38V5.52L55,5.28S25.14,7.72,6.78,37.1c0,0,14.25-16.17,33.71-17.1s41.39-.23,41.39-.23L83,102.92s1.92,22.89,24.67,17.75c0,0,11.51,0,40-36.67"/><path d="M135.16,30.19V23.48h51v6.71ZM164,63.72h-6.71V32.21H164V63.72ZM284.57,48.29a11.47,11.47,0,0,1-5.14,1.94l10.11,13.49h-8.36l-10-13.41H245.28V63.72h-6.7V43.6h39.54a4.62,4.62,0,0,0,3.35-1.34,4.5,4.5,0,0,0,1.36-3.34v-4a4.64,4.64,0,0,0-4.71-4.71H245.28V41.61h-6.7V23.48h39.54A11.14,11.14,0,0,1,283.86,25,11.73,11.73,0,0,1,288,29.16a11.14,11.14,0,0,1,1.54,5.74v4a10.92,10.92,0,0,1-1.35,5.34,11.59,11.59,0,0,1-3.62,4Zm23.18,15.43a10.85,10.85,0,0,1-6.21-1.85A11.74,11.74,0,0,1,297.37,57H356.7v6.7ZM342.47,55a4.53,4.53,0,0,0,.81-2.67V34.9a4.64,4.64,0,0,0-4.71-4.71H307.72A4.64,4.64,0,0,0,303,34.9V52.33a4.53,4.53,0,0,0,.81,2.67h-7.18a10.29,10.29,0,0,1-.34-2.67V34.9a11,11,0,0,1,1.55-5.74A11.62,11.62,0,0,1,302,25a11.06,11.06,0,0,1,5.71-1.54h30.85A11.14,11.14,0,0,1,344.31,25a11.73,11.73,0,0,1,4.14,4.14A11.14,11.14,0,0,1,350,34.9V52.33a10.29,10.29,0,0,1-.34,2.67Zm70.16,0h-7.19a4.47,4.47,0,0,0,.82-2.67V23.48H413V52.33a10.73,10.73,0,0,1-.33,2.67ZM362,52.33V23.48h6.71V52.33a4.53,4.53,0,0,0,.81,2.67h-7.21a11.21,11.21,0,0,1-.31-2.67Zm45.77,9.54a10.89,10.89,0,0,1-6.2,1.85H373.4a10.9,10.9,0,0,1-6.21-1.85A11.69,11.69,0,0,1,363,57H412a11.55,11.55,0,0,1-4.18,4.85Zm13.73,1.85V57h47.59v6.7Zm0-40.24h47.59v6.71H421.5V23.48Zm6.68,16.78h34.88V47H428.18v8H421.5V32.21h6.68v8Z"/><polygon points="352.23 42.03 348.75 37.71 348.75 47.37 352.23 42.03"/><polygon points="352.31 35.05 348.82 30.73 348.82 39.37 352.31 35.05"/><polygon points="352.44 50.15 348.95 45.83 348.95 54.47 352.44 50.15"/><polygon points="318.1 20.39 313.78 23.88 322.41 23.88 318.1 20.39"/><polygon points="335.75 20.11 331.43 23.6 340.07 23.6 335.75 20.11"/><polygon points="326.9 20.08 322.59 23.57 331.22 23.57 326.9 20.08"/><polygon points="309.84 20.32 305.53 23.8 314.16 23.8 309.84 20.32"/><line class="cls-1" x1="220.79" y1="27.9" x2="220.67" y2="28.05"/><path class="cls-1" d="M222.48,39.45c-.72.31-1.44.59-2.17.84l2.16-.86Z"/><path class="cls-1" d="M222.48,39.45c-.72.31-1.44.59-2.17.84l2.16-.86Z"/><path class="cls-1" d="M222.48,39.45c-.72.31-1.44.59-2.17.84l2.16-.86Z"/><line class="cls-1" x1="216.81" y1="24.03" x2="216.81" y2="24.03"/><path class="cls-1" d="M222.47,39.43l-2.16.86c.73-.25,1.45-.53,2.17-.84Zm0,0-2.16.86c.73-.25,1.45-.53,2.17-.84Zm0,0-2.16.86c.73-.25,1.45-.53,2.17-.84Zm0,0-2.16.86c.73-.25,1.45-.53,2.17-.84Zm0,0-2.16.86c.73-.25,1.45-.53,2.17-.84Zm0,0-2.16.86c.73-.25,1.45-.53,2.17-.84Zm0,0-2.16.86c.73-.25,1.45-.53,2.17-.84Zm0,0-2.16.86c.73-.25,1.45-.53,2.17-.84Zm0,0-2.16.86c.73-.25,1.45-.53,2.17-.84Zm0,0-2.16.86c.73-.25,1.45-.53,2.17-.84Zm0,0-2.16.86c.73-.25,1.45-.53,2.17-.84Zm0,0-2.16.86c.73-.25,1.45-.53,2.17-.84Zm0,0-2.16.86c.73-.25,1.45-.53,2.17-.84Zm0,0-2.16.86c.73-.25,1.45-.53,2.17-.84Z"/><path class="cls-1" d="M207.3,38h0l-.15-.39Z"/><path class="cls-1" d="M207.3,38h0l-.15-.39Z"/><path class="cls-1" d="M207.3,38h0l-.15-.39Z"/><path class="cls-2" d="M231.26,43.12q0-.6,0-1.2c0-.48,0-1,0-1.44l-1.39.14c0-.29,0-.58-.07-.87l1.35-.51a22.62,22.62,0,0,0-.42-2.35l-1.38.21c-.07-.33-.16-.65-.25-1l1.32-.41a21.74,21.74,0,0,0-.89-2.46l-1.32.4c-.14-.34-.3-.68-.47-1l1.23-.59-.24-.46c-.26-.49-.54-1-.83-1.43l-.25-.39-1,.88c-.2-.3-.4-.6-.62-.9l1-.93a21.58,21.58,0,0,0-1.63-1.95l-1,.87c-.28-.3-.57-.59-.86-.87l1-.87a22.18,22.18,0,0,0-2-1.66l-.87,1c-.29-.22-.59-.44-.9-.64l.8-1a21,21,0,0,0-2.25-1.31l-.77,1h0L217.7,23l.4-1.2a22.13,22.13,0,0,0-2.44-.89l-.5,1.13h0l-1-.26.11-1.22a18.71,18.71,0,0,0-2.28-.4l-.34,1.16-1-.1L210.6,20c-.41,0-.82,0-1.24,0s-.82,0-1.23,0l-.08,1.17c-.35,0-.69,0-1,.08l-.13-1.15a23.11,23.11,0,0,0-2.64.46l.2,1.12-1,.25-.45-1a23.29,23.29,0,0,0-2.46.9l.39,1c-.29.12-.58.26-.87.4l-.63-.91a22.44,22.44,0,0,0-2.27,1.33l.66.85c-.3.2-.6.4-.89.61l-.68-.82a19.74,19.74,0,0,0-2,1.72l.74.75c-.25.24-.5.48-.74.73l-.75-.73a20.38,20.38,0,0,0-1.8,2.14l.88.55c-.22.3-.44.61-.64.92l-.09,0-.84-.43c-.29.44-.57.9-.82,1.37-.15.26-.3.54-.44.81l.9.51c-.14.29-.29.59-.42.89l-.93-.42a19.9,19.9,0,0,0-1,2.74l1,.2c-.1.33-.19.67-.27,1l-1-.13a20,20,0,0,0-.44,2.55l1,.12c0,.32-.06.65-.08,1h-1c0,.45,0,.9,0,1.36s0,.95,0,1.42l1-.09c0,.31.05.62.08.93l-1,.39A19.9,19.9,0,0,0,188,46.9l1.05,0,.27,1-1,.29a20,20,0,0,0,1,2.62l1-.45c.14.3.28.6.43.89l-1,.45.06.13A21.53,21.53,0,0,0,191.09,54l.92-.57c.2.3.42.6.64.89l-.93.58a22.43,22.43,0,0,0,1.66,2l.91-.65c.23.24.47.47.71.7l-.76.81a20.3,20.3,0,0,0,2,1.7l.75-.85.85.58-.61,1a21.67,21.67,0,0,0,2.29,1.33l.56-1c.33.15.66.31,1,.45l-.41,1.1a20.22,20.22,0,0,0,2.54.92l.31-1.16,1,.26-.25,1.19a23,23,0,0,0,2.53.44l.11-1.23,1,.09.16,1.25c.4,0,.81,0,1.22,0s.92,0,1.37-.05V62.53l.93-.09.19,1.27a24,24,0,0,0,2.69-.48L214.1,62l1.08-.29L215.5,63a20,20,0,0,0,2.66-1l-.8-1.1c.37-.16.73-.33,1.09-.51l.71,1.14a21.52,21.52,0,0,0,2.37-1.38l-.83-1.07c.3-.2.6-.42.9-.64l.81,1.09a19.83,19.83,0,0,0,1.93-1.61l-.74-1.19c.25-.24.5-.49.73-.75l.86,1.1A22.11,22.11,0,0,0,227,54.93l-1.12-.82c.18-.24.35-.49.52-.74l1.27.61A20.3,20.3,0,0,0,229,51.76l0,0L227.76,51c.15-.31.29-.62.43-.94l1.27.6a22,22,0,0,0,.93-2.54l-1.34-.43c.1-.35.19-.69.28-1l1.39.24a23.24,23.24,0,0,0,.45-2.67h-1.42c0-.3.06-.6.08-.9Zm-12,8.64A14,14,0,0,1,196.6,36.05a13.53,13.53,0,0,1,.86-1.59,14,14,0,0,1,24,.41,13.1,13.1,0,0,1,.63,1.24,14,14,0,0,1-2.86,15.65Z"/><path class="cls-3" d="M222.09,36.11a13.1,13.1,0,0,0-.63-1.24,14,14,0,0,0-24-.41,13.53,13.53,0,0,0-.86,1.59,14,14,0,1,0,25.49.06ZM217.7,51.76a12.94,12.94,0,0,1-20.14-15.21,12.14,12.14,0,0,1,.85-1.59,12.94,12.94,0,0,1,22.1.38c.23.4.45.81.64,1.23a13,13,0,0,1-3.45,15.19Z"/><path class="cls-4" d="M207.15,37.6l.15.39h0Z"/><path class="cls-2" d="M221.15,36.57c-.19-.42-.41-.83-.64-1.23a12.94,12.94,0,0,0-22.1-.38,12.14,12.14,0,0,0-.85,1.59,12.93,12.93,0,1,0,23.59,0Zm-.6,10a16.7,16.7,0,0,1-1.68,2.93c-.08.12-.2.26-.35.26a.46.46,0,0,1-.28-.15c-1.85-1.6-3.45-3.49-5.4-5-.44-.33-1.1-.62-1.47-.21s-.13.82,0,1.22l2.57,6,.48,1.14A9.33,9.33,0,0,1,210.13,54c0-.18,0-.37,0-.55s0-.29,0-.44,0-.21,0-.31,0-.35,0-.52,0-.21,0-.32v-.06c0-.16,0-.33,0-.49v-.48c0-.38,0-.75,0-1.12v-.38c0-.34,0-.67-.06-1l0-.4c0-.13,0-.27-.05-.4s0-.37-.07-.55l0-.23-.06-.35a1.9,1.9,0,0,0-.31-.87.7.7,0,0,0-.82-.25,1.08,1.08,0,0,0-.43.57c-.85,2-1.7,4-2.54,6l-.63,1.46c-.25-.09-.49-.19-.73-.3l-.18-.08-.17-.08-.2-.1-.17-.09-.15-.08-.35-.2-.16-.1-.17-.1-.33-.22-.16-.11,0,0c-.13-.08-.25-.17-.37-.26l-.11-.09-.56-.46a47.41,47.41,0,0,0,5.18-5.52,1.94,1.94,0,0,0,.44-.76.71.71,0,0,0-.24-.79,1,1,0,0,0-1,0c-2.28.88-4.42,2.13-6.77,2.83a.83.83,0,0,1-.56,0,.94.94,0,0,1-.47-.62,12,12,0,0,1-.64-3.46,70.74,70.74,0,0,0,7.42-.24,2,2,0,0,0,1.08-.3.71.71,0,0,0,.16-1,1,1,0,0,0-.33-.19c-2-1-4-1.75-6.05-2.62-.26-.12-1.28-.39-1.36-.66a.19.19,0,0,1,0-.08v0s0,0,0-.08a.13.13,0,0,1,0-.06h0v0l0-.09,0-.07.06-.13a.37.37,0,0,1,.05-.11v0l.12-.24.07-.13.09-.18c0-.09.08-.18.13-.27l.06-.12.09-.18a.41.41,0,0,0,.05-.09.31.31,0,0,0,0-.1l0,0,.07-.12.07-.11a1.74,1.74,0,0,1,.11-.18.57.57,0,0,1,.08-.13h0s0,0,0,0l.05-.08h0l.09-.13c.06-.1.13-.19.2-.29l.21-.28a.21.21,0,0,1,0-.06l.18-.23.11-.13.54.57.24.25.47.49.11.11.18.18,0,0,.17.16.14.14.17.17.08.08.38.37,0,0,.26.25h0a0,0,0,0,1,0,0h0l.39.37h0l.21.2,0,0,.48.44.35.31h0l.11.09,0,0,.44.38c.2.17.39.35.59.51l.06.05.09.08.09.07.09.06.09.07.07,0,0,0,0,0,.16.07h.08a.8.8,0,0,0,.87-.24s0,0,0-.05a.05.05,0,0,0,0,0h0s0,0,0,0a0,0,0,0,0,0,0,.19.19,0,0,0,0-.07,0,0,0,0,1,0,0h0a.13.13,0,0,1,0-.06h0v-.07a1.13,1.13,0,0,0,0-.25c0-.06,0-.11,0-.17l-.09-.24L207.3,38h0l-.15-.39c0-.1-.08-.2-.11-.29l-.36-.92-.36-.93c-.5-1.25-1-2.49-1.54-3.73-.13-.28-.25-.57-.38-.86a18.71,18.71,0,0,1,4.18-1,51,51,0,0,0,.25,7.52s0,.07,0,.1a.43.43,0,0,0,0,0s0,.08,0,.12a.24.24,0,0,1,0,.08v0a.43.43,0,0,1,0,0l0,.13,0,.08a.36.36,0,0,1,0,.09h0a.41.41,0,0,0,.05.09.66.66,0,0,0,.12.17l0,0,0,0,.08.07,0,0,.07,0,.06,0,.07,0h.17a.72.72,0,0,0,.25-.07.05.05,0,0,1,0,0l.1-.08.07-.06a1.61,1.61,0,0,0,.21-.3h0l.06-.12v0s0-.07.05-.1.07-.18.09-.26A69.07,69.07,0,0,1,213.33,31a.54.54,0,0,1,.3-.34.53.53,0,0,1,.38.09,27.65,27.65,0,0,1,3.35,2.1c-1.53,1.67-3.05,3.35-4.57,5l-.57.63-.05.06-.06.06a.18.18,0,0,1-.05.07l-.05.07-.06.09,0,.06a1.5,1.5,0,0,0-.11.22l0,.1s0,0,0,0v0a.09.09,0,0,0,0,.05.58.58,0,0,0,.1.38c.27.38.85.24,1.28.07l4.91-2h0l2.29-.91v0l.15.32s0,.11.08.16l.15.38.05.12.06.17s0,.09,0,.13l.12.4c0,.06,0,.11.05.16s0,0,0,0,0,.13.05.19,0,.13,0,.2a.43.43,0,0,1,0,.05c0,.07,0,.13,0,.2s.07.35.1.52l0,.2a1.1,1.1,0,0,0,0,.18.19.19,0,0,0,0,.08c0,.06,0,.11,0,.16s0,.15,0,.22v0c0,.07,0,.15,0,.22a50.6,50.6,0,0,0-7.78.34,1.19,1.19,0,0,0-1,.47.82.82,0,0,0,.22.91,2.44,2.44,0,0,0,.89.46A70.3,70.3,0,0,1,220.3,46a.52.52,0,0,1,.32.27A.5.5,0,0,1,220.55,46.62Z"/><path class="cls-5" d="M220.62,46.25a.5.5,0,0,1-.07.37,16.7,16.7,0,0,1-1.68,2.93c-.08.12-.2.26-.35.26a.46.46,0,0,1-.28-.15c-1.85-1.6-3.45-3.49-5.4-5-.44-.33-1.1-.62-1.47-.21s-.13.82,0,1.22l2.57,6,.48,1.14A9.33,9.33,0,0,1,210.13,54c0-.18,0-.37,0-.55s0-.29,0-.44,0-.21,0-.31,0-.35,0-.52,0-.21,0-.32v-.06c0-.16,0-.33,0-.49v-.48c0-.38,0-.75,0-1.12v-.38c0-.34,0-.67-.06-1l0-.4c0-.13,0-.27-.05-.4s0-.37-.07-.55l0-.23-.06-.35a1.9,1.9,0,0,0-.31-.87.7.7,0,0,0-.82-.25,1.08,1.08,0,0,0-.43.57c-.85,2-1.7,4-2.54,6l-.63,1.46c-.25-.09-.49-.19-.73-.3l-.18-.08-.17-.08-.2-.1-.17-.09-.15-.08-.35-.2-.16-.1-.17-.1-.33-.22-.16-.11,0,0c-.13-.08-.25-.17-.37-.26l-.11-.09-.56-.46a47.41,47.41,0,0,0,5.18-5.52,1.94,1.94,0,0,0,.44-.76.71.71,0,0,0-.24-.79,1,1,0,0,0-1,0c-2.28.88-4.42,2.13-6.77,2.83a.83.83,0,0,1-.56,0,.94.94,0,0,1-.47-.62,12,12,0,0,1-.64-3.46,70.74,70.74,0,0,0,7.42-.24,2,2,0,0,0,1.08-.3.71.71,0,0,0,.16-1,1,1,0,0,0-.33-.19c-2-1-4-1.75-6.05-2.62-.26-.12-1.28-.39-1.36-.66a.19.19,0,0,1,0-.08v0s0,0,0-.08a.13.13,0,0,1,0-.06h0v0l0-.09,0-.07.06-.13a.37.37,0,0,1,.05-.11v0l.12-.24.07-.13.09-.18c0-.09.08-.18.13-.27l.06-.12.09-.18a.41.41,0,0,0,.05-.09.31.31,0,0,0,0-.1l0,0,.07-.12.07-.11a1.74,1.74,0,0,1,.11-.18.57.57,0,0,1,.08-.13h0s0,0,0,0l.05-.08h0l.09-.13c.06-.1.13-.19.2-.29l.21-.28a.21.21,0,0,1,0-.06l.18-.23.11-.13.54.57.24.25.47.49.11.11.18.18,0,0,.17.16.14.14.17.17.08.08.38.37,0,0,.26.25h0a0,0,0,0,1,0,0h0l.39.37h0l.21.2,0,0,.48.44.35.31h0l.11.09,0,0,.44.38c.2.17.39.35.59.51l.06.05.09.08.09.07.09.06.09.07.07,0,0,0,0,0,.16.07h.08a.8.8,0,0,0,.87-.24s0,0,0-.05a.05.05,0,0,0,0,0h0s0,0,0,0a0,0,0,0,0,0,0,.19.19,0,0,0,0-.07,0,0,0,0,1,0,0h0a.13.13,0,0,1,0-.06h0v-.07a1.13,1.13,0,0,0,0-.25c0-.06,0-.11,0-.17l-.09-.24L207.3,38l-.15-.39c0-.1-.08-.2-.11-.29l-.36-.92-.36-.93c-.5-1.25-1-2.49-1.54-3.73-.13-.28-.25-.57-.38-.86a18.71,18.71,0,0,1,4.18-1,51,51,0,0,0,.25,7.52s0,.07,0,.1a.43.43,0,0,0,0,0s0,.08,0,.12a.24.24,0,0,1,0,.08v0a.43.43,0,0,1,0,0l0,.13,0,.08a.36.36,0,0,1,0,.09h0a.41.41,0,0,0,.05.09.66.66,0,0,0,.12.17l0,0,0,0,.08.07,0,0,.07,0,.06,0,.07,0h.17a.72.72,0,0,0,.25-.07.05.05,0,0,1,0,0l.1-.08.07-.06a1.61,1.61,0,0,0,.21-.3h0l.06-.12v0s0-.07.05-.1.07-.18.09-.26A69.07,69.07,0,0,1,213.33,31a.54.54,0,0,1,.3-.34.53.53,0,0,1,.38.09,27.65,27.65,0,0,1,3.35,2.1c-1.53,1.67-3.05,3.35-4.57,5l-.57.63-.05.06-.06.06a.18.18,0,0,1-.05.07l-.05.07-.06.09,0,.06a1.5,1.5,0,0,0-.11.22l0,.1s0,0,0,0v0a.09.09,0,0,0,0,.05.58.58,0,0,0,.1.38c.27.38.85.24,1.28.07l4.91-2h0c.77-.26,1.54-.56,2.3-.89l.15.32s0,.11.08.16l.15.38.05.12.06.17s0,.09,0,.13l.12.4c0,.06,0,.11.05.16s0,0,0,0,0,.13.05.19,0,.13,0,.2a.43.43,0,0,1,0,.05c0,.07,0,.13,0,.2s.07.35.1.52l0,.2a1.1,1.1,0,0,0,0,.18.19.19,0,0,0,0,.08c0,.06,0,.11,0,.16s0,.15,0,.22v0c0,.07,0,.15,0,.22a50.6,50.6,0,0,0-7.78.34,1.19,1.19,0,0,0-1,.47.82.82,0,0,0,.22.91,2.44,2.44,0,0,0,.89.46A70.3,70.3,0,0,1,220.3,46,.52.52,0,0,1,220.62,46.25Z"/><path class="cls-1" d="M207.3,38h0l-.15-.39Z"/><line class="cls-1" x1="216.81" y1="24.03" x2="216.81" y2="24.03"/><path class="cls-2" d="M164.23,75.09h-3.12v9.67h-1.27V75.09h-3.12V73.94h7.51Z"/><path class="cls-2" d="M190.32,84.76h-5.74V73.94h5.5v1.15h-4.23v3.59h3.91v1.14h-3.91v3.79h4.47Z"/><path class="cls-2" d="M218.42,84.3a6.27,6.27,0,0,1-3,.64,4.8,4.8,0,0,1-3.69-1.49,5.46,5.46,0,0,1-1.39-3.9,5.73,5.73,0,0,1,1.56-4.19,5.28,5.28,0,0,1,4-1.6,6.52,6.52,0,0,1,2.55.44v1.35a5.21,5.21,0,0,0-2.57-.64,3.93,3.93,0,0,0-3,1.24,4.7,4.7,0,0,0-1.15,3.33,4.5,4.5,0,0,0,1.08,3.15,3.69,3.69,0,0,0,2.84,1.17,5.29,5.29,0,0,0,2.82-.73Z"/><path class="cls-2" d="M247.41,84.76h-1.27V79.82h-5.59v4.94h-1.27V73.94h1.27v4.74h5.59V73.94h1.27Z"/><path class="cls-2" d="M277.62,84.76h-1.55l-5.57-8.62a3.93,3.93,0,0,1-.34-.68h-.05a11.07,11.07,0,0,1,.06,1.48v7.82H268.9V73.94h1.65L276,82.43a7.36,7.36,0,0,1,.44.72h0a11.68,11.68,0,0,1-.07-1.59V73.94h1.26Z"/><path class="cls-2" d="M303.48,84.94a4.77,4.77,0,0,1-3.69-1.52,5.62,5.62,0,0,1-1.38-3.94,6,6,0,0,1,1.41-4.17,4.94,4.94,0,0,1,3.84-1.55,4.64,4.64,0,0,1,3.61,1.51,5.64,5.64,0,0,1,1.37,3.94,6,6,0,0,1-1.41,4.19A4.83,4.83,0,0,1,303.48,84.94Zm.09-10a3.49,3.49,0,0,0-2.77,1.23,4.72,4.72,0,0,0-1.06,3.22,4.79,4.79,0,0,0,1,3.22,3.42,3.42,0,0,0,2.71,1.22,3.56,3.56,0,0,0,2.8-1.16,4.73,4.73,0,0,0,1-3.25,5,5,0,0,0-1-3.32A3.43,3.43,0,0,0,303.57,74.91Z"/><path class="cls-2" d="M335,84.76h-5.61V73.94h1.27v9.67H335Z"/><path class="cls-2" d="M359.18,84.94a4.74,4.74,0,0,1-3.68-1.52,5.62,5.62,0,0,1-1.38-3.94,6,6,0,0,1,1.41-4.17,4.94,4.94,0,0,1,3.83-1.55A4.62,4.62,0,0,1,363,75.27a5.6,5.6,0,0,1,1.37,3.94,6,6,0,0,1-1.4,4.19A4.87,4.87,0,0,1,359.18,84.94Zm.09-10a3.48,3.48,0,0,0-2.76,1.23,4.72,4.72,0,0,0-1.07,3.22,4.79,4.79,0,0,0,1,3.22,3.38,3.38,0,0,0,2.7,1.22A3.56,3.56,0,0,0,362,82.64a4.78,4.78,0,0,0,1-3.25,5,5,0,0,0-1-3.32A3.44,3.44,0,0,0,359.27,74.91Z"/><path class="cls-2" d="M393.21,84a7.24,7.24,0,0,1-3.62.92,4.93,4.93,0,0,1-3.74-1.5,5.47,5.47,0,0,1-1.43-4A5.62,5.62,0,0,1,386,75.37a5.43,5.43,0,0,1,4-1.61,6.9,6.9,0,0,1,3,.57v1.41a5.65,5.65,0,0,0-3.11-.83,3.86,3.86,0,0,0-3,1.25,5.23,5.23,0,0,0-.08,6.47,3.77,3.77,0,0,0,2.92,1.17,4.5,4.5,0,0,0,2.2-.51v-3h-2.37V79.11h3.63Z"/><path class="cls-2" d="M415.65,84.76h-1.26V73.94h1.26Z"/><path class="cls-2" d="M442.89,84.76h-5.74V73.94h5.5v1.15h-4.23v3.59h3.91v1.14h-3.91v3.79h4.47Z"/><path class="cls-2" d="M463.12,84.32V82.83a2.88,2.88,0,0,0,.62.4,4.54,4.54,0,0,0,.75.31,5.47,5.47,0,0,0,.8.19,3.93,3.93,0,0,0,.74.07,2.88,2.88,0,0,0,1.74-.44,1.43,1.43,0,0,0,.58-1.24,1.57,1.57,0,0,0-.19-.77,2.28,2.28,0,0,0-.54-.59,4.6,4.6,0,0,0-.8-.51l-1-.52c-.38-.19-.73-.38-1.05-.58a4.41,4.41,0,0,1-.86-.65,2.66,2.66,0,0,1-.57-.8,2.62,2.62,0,0,1-.2-1,2.57,2.57,0,0,1,.32-1.29,2.92,2.92,0,0,1,.85-.9,4,4,0,0,1,1.21-.53,5.71,5.71,0,0,1,1.37-.17,5.34,5.34,0,0,1,2.33.38v1.43a4.25,4.25,0,0,0-2.46-.66,4,4,0,0,0-.83.08,2.15,2.15,0,0,0-.73.29,1.5,1.5,0,0,0-.53.5,1.33,1.33,0,0,0-.21.76,1.54,1.54,0,0,0,.62,1.26,3.85,3.85,0,0,0,.73.48l1,.52c.39.19.75.39,1.1.6a5.09,5.09,0,0,1,.91.7,3.41,3.41,0,0,1,.63.85,2.48,2.48,0,0,1,.23,1.08,2.7,2.7,0,0,1-.32,1.35,2.59,2.59,0,0,1-.84.9,3.74,3.74,0,0,1-1.23.5,6.28,6.28,0,0,1-1.46.16c-.17,0-.38,0-.63,0a6.88,6.88,0,0,1-.77-.13,5.88,5.88,0,0,1-.75-.19A2.69,2.69,0,0,1,463.12,84.32Z"/></svg>