<svg xmlns="http://www.w3.org/2000/svg" viewBox="0 0 2308.86 579.31"><defs><style>.cls-1,.cls-5{fill:#fff;}.cls-2{fill:none;}.cls-2,.cls-4,.cls-5{stroke:#231f20;stroke-miterlimit:10;}.cls-3,.cls-4{fill:#231f20;}</style></defs><g id="Layer_2" data-name="Layer 2"><g id="Layer_3" data-name="Layer 3"><path class="cls-1" d="M702.73,386.81s-88.86,91.71-134,116.34c0,0-105.28,58.43-108-46.43s-9.57-397.3-9.57-397.3H640.55V1.17L240.62,0S91.6,12.16,0,158.71c0,0,71.09-80.65,168.16-85.31s206.45-1.16,206.45-1.16L380.08,487s9.57,114.18,123,88.55c0,0,57.42,0,199.61-182.92"/><path class="cls-1" d="M640.33,124.22V90.77h254.2v33.45ZM784.09,291.5H750.63V134.3h33.46V291.5Zm601.5-77a57.09,57.09,0,0,1-25.63,9.65l50.4,67.33h-41.71l-50-66.92H1189.61V291.5h-33.45V191.14h197.23a22.83,22.83,0,0,0,16.72-6.73,22.45,22.45,0,0,0,6.79-16.65v-20a23.21,23.21,0,0,0-23.51-23.52H1189.61v57h-33.45V90.77h197.23A55.05,55.05,0,0,1,1382,98.46a58.58,58.58,0,0,1,20.66,20.66,55,55,0,0,1,7.69,28.62v20a54.49,54.49,0,0,1-6.72,26.67,58.1,58.1,0,0,1-18.05,20.09Zm115.63,77a54.39,54.39,0,0,1-31-9.25A58.28,58.28,0,0,1,1449.42,258h295.92V291.5ZM1674.37,248a22.47,22.47,0,0,0,4.05-13.3V147.74a23.19,23.19,0,0,0-23.52-23.52H1501.07a23.2,23.2,0,0,0-23.38,23.52v86.92a22.42,22.42,0,0,0,4.07,13.3h-35.85a52.41,52.41,0,0,1-1.66-13.3V147.74a54.84,54.84,0,0,1,7.69-28.62,58.36,58.36,0,0,1,20.64-20.66,54.82,54.82,0,0,1,28.49-7.69H1654.9a55.09,55.09,0,0,1,28.63,7.69,58.31,58.31,0,0,1,20.65,20.66,55,55,0,0,1,7.7,28.62v86.92a53.33,53.33,0,0,1-1.67,13.3Zm350,0h-35.84a22.4,22.4,0,0,0,4-13.3V90.77H2026V234.66a52.86,52.86,0,0,1-1.67,13.3Zm-252.53-13.3V90.77h33.46V234.66a22.41,22.41,0,0,0,4.06,13.3h-36a57.29,57.29,0,0,1-1.54-13.3Zm228.3,47.59a54.49,54.49,0,0,1-30.92,9.25H1828.63a54.53,54.53,0,0,1-30.94-9.25A58.09,58.09,0,0,1,1776.83,258H2021a58,58,0,0,1-20.86,24.21Zm68.45,9.25V258H2306V291.5Zm0-200.73H2306v33.45H2068.54V90.77Zm33.32,83.7h174v33.46h-174v40h-33.32V134.3h33.32v40.17Z"/><path class="cls-2" d="M1000.15,163.14h0c-.24-.66-.49-1.31-.74-2Z"/><path class="cls-2" d="M1000.15,163.14h0c-.24-.66-.49-1.31-.74-2Z"/><path class="cls-2" d="M1000.15,163.14h0c-.24-.66-.49-1.31-.74-2Z"/><path class="cls-3" d="M1119.66,188.72c.1-2,.16-4,.16-6,0-2.41-.08-4.81-.24-7.18l-6.94.7c-.09-1.45-.2-2.89-.36-4.32l6.73-2.57a110.4,110.4,0,0,0-2.09-11.72l-6.86,1c-.38-1.63-.81-3.24-1.27-4.83l6.59-2.06a107.26,107.26,0,0,0-4.44-12.27l-6.56,2q-1.11-2.58-2.36-5.08l6.15-2.91c-.4-.78-.8-1.56-1.21-2.32-1.3-2.43-2.68-4.79-4.16-7.1-.4-.65-.82-1.3-1.25-1.94l-5.16,4.39q-1.48-2.31-3.08-4.51l4.88-4.65a109.48,109.48,0,0,0-8.15-9.7l-5,4.34q-2.1-2.25-4.33-4.37l4.93-4.35a109.4,109.4,0,0,0-9.81-8.27l-4.31,4.84c-1.46-1.1-3-2.17-4.49-3.19l4-5.07a111.6,111.6,0,0,0-11.21-6.55L1056,90.23h0c-1.29-.65-2.6-1.28-3.93-1.87l2-6A106.28,106.28,0,0,0,1041.88,78l-2.53,5.64h0q-2.37-.7-4.78-1.32l.59-6.1a109.52,109.52,0,0,0-11.38-2L1022.05,80c-1.64-.2-3.28-.36-4.94-.48l-.49-6c-2-.11-4.1-.17-6.16-.17s-4.12.06-6.16.17l-.41,5.84c-1.71.08-3.42.22-5.11.4l-.66-5.73A111.83,111.83,0,0,0,985,76.36l1,5.58c-1.62.37-3.22.79-4.8,1.24L978.91,78a106.26,106.26,0,0,0-12.26,4.51l1.92,5.16q-2.18.93-4.3,2l-3.14-4.54a109.78,109.78,0,0,0-11.36,6.64L953.1,96q-2.26,1.49-4.44,3.07L945.24,95a106.46,106.46,0,0,0-10.16,8.56l3.7,3.75q-1.89,1.78-3.71,3.66l-3.76-3.65a110.32,110.32,0,0,0-9,10.69l4.43,2.72q-1.68,2.25-3.24,4.59l-.43-.22-4.17-2.18q-2.19,3.33-4.13,6.83-1.11,2-2.15,4.07l4.48,2.51c-.74,1.47-1.44,2.95-2.11,4.46l-4.66-2.1a106.64,106.64,0,0,0-5,13.68l5,1c-.48,1.66-.93,3.34-1.33,5l-5.1-.61a108.46,108.46,0,0,0-2.2,12.71l5.08.59c-.18,1.61-.32,3.24-.43,4.87l-5.12.05q-.21,3.38-.21,6.8c0,2.38.07,4.75.23,7.1l5.11-.48c.1,1.56.24,3.12.42,4.67l-5,1.92a111,111,0,0,0,2,11.62l5.28-.27q.62,2.49,1.35,4.92l-5,1.42a108.79,108.79,0,0,0,4.78,13.1l4.79-2.26c.66,1.5,1.36,3,2.1,4.45l-4.82,2.23c.1.22.21.43.32.65a109.83,109.83,0,0,0,6.61,11.38l4.58-2.86c1,1.51,2.09,3,3.19,4.45l-4.62,2.89a107.24,107.24,0,0,0,8.25,9.91l4.57-3.23q1.72,1.8,3.54,3.49L935,261.91a111.62,111.62,0,0,0,10,8.49l3.75-4.28c1.38,1,2.8,2,4.24,2.92L950,273.87a107.86,107.86,0,0,0,11.42,6.64l2.82-5.12q2.43,1.2,4.92,2.25l-2,5.52a107.57,107.57,0,0,0,12.69,4.58l1.53-5.8c1.69.47,3.39.91,5.11,1.3l-1.29,5.92a109.57,109.57,0,0,0,12.65,2.21l.55-6.14c1.73.19,3.47.34,5.23.44l.79,6.27q3,.17,6.11.16c2.28,0,4.55-.06,6.8-.2v-6.35c1.56-.12,3.12-.26,4.66-.45l.92,6.31a108.16,108.16,0,0,0,13.42-2.37l-2.17-6.14c1.81-.45,3.61-.94,5.38-1.47l1.62,6.33a109.51,109.51,0,0,0,13.25-4.82l-4-5.5c1.83-.79,3.63-1.62,5.4-2.51l3.53,5.69a109.1,109.1,0,0,0,11.86-6.9l-4.17-5.34q2.28-1.51,4.48-3.17l4.07,5.43a110.57,110.57,0,0,0,9.62-8l-3.68-6c1.24-1.21,2.46-2.44,3.64-3.72l4.28,5.5a111.32,111.32,0,0,0,9.08-10.78l-5.59-4.1q1.32-1.81,2.57-3.68l6.34,3a108.74,108.74,0,0,0,6.42-11.09l.12-.24-6.15-3.35c.77-1.54,1.49-3.09,2.17-4.67l6.34,3a107.79,107.79,0,0,0,4.62-12.65l-6.67-2.17c.5-1.71,1-3.45,1.38-5.2l6.93,1.17a107.93,107.93,0,0,0,2.25-13.3l-7.07.06c.18-1.5.32-3,.43-4.53Zm-60,43.09a69.81,69.81,0,0,1-112.88-78.34,66.93,66.93,0,0,1,4.27-7.92,69.81,69.81,0,0,1,119.69,2c1.15,2,2.2,4,3.16,6.16a69.84,69.84,0,0,1-14.24,78.07Z"/><path class="cls-1" d="M1073.93,153.74c-1-2.11-2-4.17-3.16-6.16a69.81,69.81,0,0,0-119.69-2,66.93,66.93,0,0,0-4.27,7.92,69.8,69.8,0,1,0,127.12.27ZM1052,231.81a64.52,64.52,0,1,1,14-81.88,66.08,66.08,0,0,1,3.19,6.14,64.59,64.59,0,0,1-17.2,75.74Z"/><path class="cls-4" d="M999.4,161.17c.25.66.5,1.31.74,2h0Z"/><path class="cls-3" d="M1069.24,156.07a66.08,66.08,0,0,0-3.19-6.14,63.68,63.68,0,1,0,3.19,6.14Zm-3,50.1a88.42,88.42,0,0,1-8.4,14.63c-.43.61-1,1.28-1.73,1.27a2.37,2.37,0,0,1-1.44-.74c-9.22-8-17.19-17.39-26.92-24.72-2.17-1.63-5.5-3.07-7.32-1.05-1.43,1.59-.66,4.1.18,6.07l12.81,30.18c.81,1.91,1.63,3.81,2.44,5.72a46.73,46.73,0,0,1-21.64,5.26c0-.91.07-1.83.09-2.74,0-.73.06-1.45.08-2.18,0-.53,0-1.05,0-1.58,0-.86.06-1.72.08-2.58l0-1.58c0-.11,0-.22,0-.32,0-.81,0-1.62,0-2.43s0-1.62,0-2.42c0-1.86,0-3.71-.08-5.56,0-.47,0-.93,0-1.39l0-.51q-.11-2.52-.3-5l-.18-2-.21-2q-.15-1.36-.36-2.73c-.05-.4-.11-.78-.17-1.18-.09-.58-.18-1.16-.28-1.73a9.72,9.72,0,0,0-1.54-4.32,3.51,3.51,0,0,0-4.09-1.27,5.22,5.22,0,0,0-2.13,2.87q-6.36,14.83-12.72,29.7c-1,2.43-2.08,4.87-3.13,7.31-1.22-.46-2.43-1-3.62-1.5l-.89-.41-.88-.42-1-.5-.83-.43-.77-.42-1.71-1-.83-.51-.84-.52c-.55-.35-1.1-.71-1.63-1.08-.27-.18-.55-.36-.81-.55a.47.47,0,0,1-.12-.09c-.61-.42-1.21-.86-1.81-1.32l-.55-.43c-1-.74-1.89-1.52-2.8-2.32a234.24,234.24,0,0,0,25.84-27.51,10.43,10.43,0,0,0,2.21-3.78,3.67,3.67,0,0,0-1.22-4c-1.39-.92-3.25-.37-4.81.23-11.38,4.44-22.06,10.67-33.77,14.14a4.59,4.59,0,0,1-2.8.21c-1.27-.45-1.9-1.84-2.34-3.11a58.3,58.3,0,0,1-3.23-17.24,363.19,363.19,0,0,0,37-1.19c1.88-.15,3.87-.37,5.36-1.52s2.14-3.59.81-4.93a5,5,0,0,0-1.63-1c-9.75-4.88-20.16-8.74-30.16-13.07-1.3-.56-6.41-1.94-6.81-3.26a1.62,1.62,0,0,1,0-.4c0-.08,0-.17,0-.26a3.28,3.28,0,0,1,.08-.41l.06-.29a0,0,0,0,0,0,0l.06-.18c0-.15.09-.3.15-.45s.08-.22.13-.33.18-.45.29-.68.17-.37.25-.56l.06-.12c.21-.43.42-.83.61-1.21l.34-.65c.19-.35.34-.65.45-.88.2-.44.41-.89.63-1.33.1-.21.2-.41.31-.61s.3-.6.46-.89.17-.31.26-.47.17-.32.26-.48a1.82,1.82,0,0,1,.15-.27c.1-.19.21-.39.32-.57s.23-.39.35-.58.35-.61.55-.91.25-.41.38-.62v0a.46.46,0,0,1,.07-.1,4,4,0,0,1,.24-.38h0c.14-.22.28-.44.43-.66.32-.48.65-1,1-1.42s.7-1,1.06-1.43l.22-.27c.29-.39.59-.78.9-1.15.18-.22.36-.45.55-.66.88.95,1.77,1.89,2.66,2.83.4.43.8.85,1.21,1.27.78.83,1.57,1.64,2.37,2.45l.52.52.91.93.12.12.82.81c.23.23.46.47.71.7l.85.85.42.41c.63.63,1.26,1.23,1.89,1.84l.08.08,1.3,1.24s0,0,0,0a.08.08,0,0,0,0,0,.08.08,0,0,0,0,0c.64.62,1.29,1.23,1.94,1.84,0,0,0,0,0,0l1.05,1,.15.14c.8.74,1.6,1.48,2.4,2.2l1.72,1.54s0,0,0,0l.5.45.17.15c.73.65,1.45,1.29,2.19,1.93,1,.86,2,1.71,3,2.56l.29.24c.14.12.28.25.43.36l.44.35a5.22,5.22,0,0,0,.45.33,4.73,4.73,0,0,0,.46.32,3,3,0,0,0,.35.22l.26.15.2.1a5,5,0,0,0,.79.34l.2.07.19.06a4,4,0,0,0,4.34-1.24c0-.08.1-.15.14-.23l.09-.18a0,0,0,0,0,0,0,.84.84,0,0,0,.08-.2l.06-.15a2,2,0,0,0,.08-.33.7.7,0,0,0,0-.14.22.22,0,0,0,0-.08,2.51,2.51,0,0,0,0-.27v0c0-.1,0-.2,0-.31a6.08,6.08,0,0,0-.14-1.26q-.09-.42-.21-.84c-.12-.42-.27-.83-.42-1.22l-.48-1.28h0c-.24-.66-.49-1.31-.74-2l-.54-1.43c-.59-1.54-1.18-3.06-1.78-4.59s-1.2-3.08-1.81-4.61q-3.74-9.36-7.7-18.61c-.61-1.43-1.24-2.86-1.86-4.3a95.35,95.35,0,0,1,20.83-5c-.19,12.52-.37,25.1,1.28,37.52,0,.16,0,.34.08.52a2.17,2.17,0,0,0,0,.25c0,.19.07.37.12.56a3,3,0,0,0,.1.43.14.14,0,0,0,0,.06,2.45,2.45,0,0,0,.08.29c.06.21.13.42.2.63l.15.4a4.68,4.68,0,0,0,.2.45.14.14,0,0,1,0,.06c.08.16.16.3.25.45a4.84,4.84,0,0,0,.59.86,1.29,1.29,0,0,0,.16.17l.15.16a3.47,3.47,0,0,0,.42.34l.19.13a3,3,0,0,0,.36.19l.3.11.32.08a1.26,1.26,0,0,0,.27,0,1.42,1.42,0,0,0,.29,0h.32a3,3,0,0,0,1.22-.36,1.18,1.18,0,0,0,.19-.11,3.28,3.28,0,0,0,.53-.39l.32-.3a7.59,7.59,0,0,0,1.09-1.5l0-.05c.1-.19.2-.38.29-.57a.26.26,0,0,1,0-.09l.24-.55c.18-.43.35-.85.49-1.27a348.39,348.39,0,0,1,13.32-33.06c.32-.72.75-1.51,1.51-1.71a2.64,2.64,0,0,1,1.92.46,132,132,0,0,1,16.67,10.46l-22.76,25-2.87,3.15-.26.3-.26.31-.25.32-.25.33c-.12.16-.22.3-.32.46s-.14.22-.2.33a6.89,6.89,0,0,0-.54,1.09c-.06.17-.11.33-.16.49s-.05.18-.07.26a2.23,2.23,0,0,0,0,.23c0,.1,0,.18,0,.27a2.72,2.72,0,0,0,.5,1.89c1.35,1.87,4.25,1.2,6.39.35l24.5-9.76h0l11.43-4.56a.36.36,0,0,1,0,.09c.27.52.53,1.06.77,1.59.12.28.25.56.37.83.27.61.53,1.24.77,1.87l.24.62c.11.29.22.57.32.87s.15.42.22.64c.23.65.44,1.32.63,2,.08.27.16.53.23.8l.06.19c.08.32.17.63.24.95l.24,1a2.44,2.44,0,0,1,.06.26c.08.34.15.67.22,1,.18.86.33,1.72.46,2.59l.15,1c0,.29.07.58.11.88,0,.14,0,.28,0,.42s.06.5.08.75.06.75.09,1.14c0,0,0,0,0,.06,0,.39,0,.76.06,1.14a249.15,249.15,0,0,0-38.81,1.69c-1.85.23-4,.66-4.83,2.31a4,4,0,0,0,1.09,4.54,12.13,12.13,0,0,0,4.41,2.32A350.36,350.36,0,0,1,1065,203a2,2,0,0,1,1.25,3.19Z"/><path class="cls-5" d="M1066.61,204.36a2.67,2.67,0,0,1-.33,1.81,88.42,88.42,0,0,1-8.4,14.63c-.43.61-1,1.28-1.73,1.27a2.37,2.37,0,0,1-1.44-.74c-9.22-8-17.19-17.39-26.92-24.72-2.17-1.63-5.5-3.07-7.32-1.05-1.43,1.59-.66,4.1.18,6.07l12.81,30.18c.81,1.91,1.63,3.81,2.44,5.72a46.73,46.73,0,0,1-21.64,5.26c0-.91.07-1.83.09-2.74,0-.73.06-1.45.08-2.18,0-.53,0-1.05,0-1.58,0-.86.06-1.72.08-2.58l0-1.58c0-.11,0-.22,0-.32,0-.81,0-1.62,0-2.43s0-1.62,0-2.42c0-1.86,0-3.71-.08-5.56,0-.47,0-.93,0-1.39l0-.51q-.11-2.52-.3-5l-.18-2-.21-2q-.15-1.36-.36-2.73c-.05-.4-.11-.78-.17-1.18-.09-.58-.18-1.16-.28-1.73a9.72,9.72,0,0,0-1.54-4.32,3.51,3.51,0,0,0-4.09-1.27,5.22,5.22,0,0,0-2.13,2.87q-6.36,14.83-12.72,29.7c-1,2.43-2.08,4.87-3.13,7.31-1.22-.46-2.43-1-3.62-1.5l-.89-.41-.88-.42-1-.5-.83-.43-.77-.42-1.71-1-.83-.51-.84-.52c-.55-.35-1.1-.71-1.63-1.08-.27-.18-.55-.36-.81-.55a.47.47,0,0,1-.12-.09c-.61-.42-1.21-.86-1.81-1.32l-.55-.43c-1-.74-1.89-1.52-2.8-2.32a234.24,234.24,0,0,0,25.84-27.51,10.43,10.43,0,0,0,2.21-3.78,3.67,3.67,0,0,0-1.22-4c-1.39-.92-3.25-.37-4.81.23-11.38,4.44-22.06,10.67-33.77,14.14a4.59,4.59,0,0,1-2.8.21c-1.27-.45-1.9-1.84-2.34-3.11a58.3,58.3,0,0,1-3.23-17.24,363.19,363.19,0,0,0,37-1.19c1.88-.15,3.87-.37,5.36-1.52s2.14-3.59.81-4.93a5,5,0,0,0-1.63-1c-9.75-4.88-20.16-8.74-30.16-13.07-1.3-.56-6.41-1.94-6.81-3.26a1.62,1.62,0,0,1,0-.4c0-.08,0-.17,0-.26a3.28,3.28,0,0,1,.08-.41l.06-.29a0,0,0,0,0,0,0l.06-.18c0-.15.09-.3.15-.45s.08-.22.13-.33.18-.45.29-.68.17-.37.25-.56l.06-.12c.21-.43.42-.83.61-1.21l.34-.65c.19-.35.34-.65.45-.88.2-.44.41-.89.63-1.33.1-.21.2-.41.31-.61s.3-.6.46-.89.17-.31.26-.47.17-.32.26-.48a1.82,1.82,0,0,1,.15-.27c.1-.19.21-.39.32-.57s.23-.39.35-.58.35-.61.55-.91.25-.41.38-.62v0a.46.46,0,0,1,.07-.1,4,4,0,0,1,.24-.38h0c.14-.22.28-.44.43-.66.32-.48.65-1,1-1.42s.7-1,1.06-1.43l.22-.27c.29-.39.59-.78.9-1.15.18-.22.36-.45.55-.66.88.95,1.77,1.89,2.66,2.83.4.43.8.85,1.21,1.27.78.83,1.57,1.64,2.37,2.45l.52.52.91.93.12.12.82.81c.23.23.46.47.71.7l.85.85.42.41c.63.63,1.26,1.23,1.89,1.84l.08.08,1.3,1.24s0,0,0,0a.08.08,0,0,0,0,0,.08.08,0,0,0,0,0c.64.62,1.29,1.23,1.94,1.84,0,0,0,0,0,0l1.05,1,.15.14c.8.74,1.6,1.48,2.4,2.2l1.72,1.54s0,0,0,0l.5.45.17.15c.73.65,1.45,1.29,2.19,1.93,1,.86,2,1.71,3,2.56l.29.24c.14.12.28.25.43.36l.44.35a5.22,5.22,0,0,0,.45.33,4.73,4.73,0,0,0,.46.32,3,3,0,0,0,.35.22l.26.15.2.1a5,5,0,0,0,.79.34l.2.07.19.06a4,4,0,0,0,4.34-1.24c0-.08.1-.15.14-.23l.09-.18a0,0,0,0,0,0,0,.84.84,0,0,0,.08-.2l.06-.15a2,2,0,0,0,.08-.33.7.7,0,0,0,0-.14.22.22,0,0,0,0-.08,2.51,2.51,0,0,0,0-.27v0c0-.1,0-.2,0-.31a6.08,6.08,0,0,0-.14-1.26q-.09-.42-.21-.84c-.12-.42-.27-.83-.42-1.22l-.48-1.28-.75-2-.54-1.43c-.59-1.54-1.18-3.06-1.78-4.59s-1.2-3.08-1.81-4.61q-3.74-9.36-7.7-18.61c-.61-1.43-1.24-2.86-1.86-4.3a95.35,95.35,0,0,1,20.83-5c-.19,12.52-.37,25.1,1.28,37.52,0,.16,0,.34.08.52a2.17,2.17,0,0,0,0,.25c0,.19.07.37.12.56a3,3,0,0,0,.1.43.14.14,0,0,0,0,.06,2.45,2.45,0,0,0,.08.29c.06.21.13.42.2.63l.15.4a4.68,4.68,0,0,0,.2.45.14.14,0,0,1,0,.06c.08.16.16.3.25.45a4.84,4.84,0,0,0,.59.86,1.29,1.29,0,0,0,.16.17l.15.16a3.47,3.47,0,0,0,.42.34l.19.13a3,3,0,0,0,.36.19l.3.11.32.08a1.26,1.26,0,0,0,.27,0,1.42,1.42,0,0,0,.29,0h.32a3,3,0,0,0,1.22-.36,1.18,1.18,0,0,0,.19-.11,3.28,3.28,0,0,0,.53-.39l.32-.3a7.59,7.59,0,0,0,1.09-1.5l0-.05c.1-.19.2-.38.29-.57a.26.26,0,0,1,0-.09l.24-.55c.18-.43.35-.85.49-1.27a348.39,348.39,0,0,1,13.32-33.06c.32-.72.75-1.51,1.51-1.71a2.64,2.64,0,0,1,1.92.46,132,132,0,0,1,16.67,10.46l-22.76,25-2.87,3.15-.26.3-.26.31-.25.32-.25.33c-.12.16-.22.3-.32.46s-.14.22-.2.33a6.89,6.89,0,0,0-.54,1.09c-.06.17-.11.33-.16.49s-.05.18-.07.26a2.23,2.23,0,0,0,0,.23c0,.1,0,.18,0,.27a2.72,2.72,0,0,0,.5,1.89c1.35,1.87,4.25,1.2,6.39.35l24.5-9.76h0q5.77-2,11.47-4.47c.27.52.53,1.06.77,1.59.12.28.25.56.37.83.27.61.53,1.24.77,1.87l.24.62c.11.29.22.57.32.87s.15.42.22.64c.23.65.44,1.32.63,2,.08.27.16.53.23.8l.06.19c.08.32.17.63.24.95l.24,1a2.44,2.44,0,0,1,.06.26c.08.34.15.67.22,1,.18.86.33,1.72.46,2.59l.15,1c0,.29.07.58.11.88,0,.14,0,.28,0,.42s.06.5.08.75.06.75.09,1.14c0,0,0,0,0,.06,0,.39,0,.76.06,1.14a249.15,249.15,0,0,0-38.81,1.69c-1.85.23-4,.66-4.83,2.31a4,4,0,0,0,1.09,4.54,12.13,12.13,0,0,0,4.41,2.32A350.36,350.36,0,0,1,1065,203,2.68,2.68,0,0,1,1066.61,204.36Z"/><path class="cls-2" d="M1000.15,163.14h0c-.24-.66-.49-1.31-.74-2Z"/><path class="cls-1" d="M785.33,348.17H769.75V396.4h-6.32V348.17H747.89v-5.72h37.44Z"/><path class="cls-1" d="M915.45,396.4H886.86V342.45h27.39v5.72H893.18v17.94h19.49v5.69H893.18v18.88h22.27Z"/><path class="cls-1" d="M1055.62,394.14q-6,3.17-14.9,3.16-11.51,0-18.43-7.41t-6.92-19.45q0-12.94,7.78-20.92t19.75-8a31.67,31.67,0,0,1,12.72,2.22v6.73a25.86,25.86,0,0,0-12.79-3.23q-9.3,0-15.07,6.2T1022,370.06q0,9.87,5.39,15.71t14.17,5.85a26.56,26.56,0,0,0,14.07-3.61Z"/><path class="cls-1" d="M1200.23,396.4h-6.32V371.8H1166v24.6h-6.32V342.45H1166v23.66h27.92V342.45h6.32Z"/><path class="cls-1" d="M1350.93,396.4h-7.75l-27.77-43a18.67,18.67,0,0,1-1.73-3.39h-.22a55.84,55.84,0,0,1,.3,7.41v39h-6.32V342.45h8.2l27,42.32c1.13,1.76,1.86,3,2.18,3.62h.15a57.63,57.63,0,0,1-.37-7.94v-38h6.32Z"/><path class="cls-1" d="M1479.89,397.3q-11.48,0-18.38-7.56t-6.91-19.68q0-13,7-20.76t19.15-7.75q11.18,0,18,7.52t6.83,19.68q0,13.2-7,20.88T1479.89,397.3Zm.45-50a17.39,17.39,0,0,0-13.81,6.13q-5.31,6.14-5.3,16.1t5.17,16.05a16.87,16.87,0,0,0,13.49,6.07q8.86,0,14-5.79t5.12-16.22q0-10.68-5-16.51T1480.34,347.27Z"/><path class="cls-1" d="M1637.28,396.4h-28V342.45h6.32v48.23h21.67Z"/><path class="cls-1" d="M1757.74,397.3q-11.48,0-18.38-7.56t-6.9-19.68q0-13,7-20.76t19.15-7.75q11.17,0,18,7.52t6.83,19.68q0,13.2-7,20.88T1757.74,397.3Zm.45-50a17.39,17.39,0,0,0-13.81,6.13q-5.3,6.14-5.3,16.1t5.17,16.05a16.88,16.88,0,0,0,13.49,6.07q8.88,0,14-5.79t5.12-16.22q0-10.68-5-16.51T1758.19,347.27Z"/><path class="cls-1" d="M1927.48,392.71a36.09,36.09,0,0,1-18.06,4.59q-11.55,0-18.68-7.45t-7.13-19.71q0-12.52,7.92-20.56t20.07-8q8.81,0,14.79,2.86v7a28.42,28.42,0,0,0-15.5-4.14,19.36,19.36,0,0,0-14.86,6.24q-5.8,6.25-5.8,16.18,0,10.23,5.38,16.08t14.6,5.85a22.59,22.59,0,0,0,11-2.52V374h-11.82v-5.72h18.14Z"/><path class="cls-1" d="M2039.39,396.4h-6.32V342.45h6.32Z"/><path class="cls-1" d="M2175.23,396.4h-28.59V342.45H2174v5.72H2153v17.94h19.49v5.69H2153v18.88h22.27Z"/><path class="cls-1" d="M2276.17,394.22v-7.45a14.4,14.4,0,0,0,3.06,2,24.83,24.83,0,0,0,3.76,1.52,28.3,28.3,0,0,0,4,1,21.72,21.72,0,0,0,3.69.34q5.83,0,8.71-2.16a8.12,8.12,0,0,0,1.92-10,10.79,10.79,0,0,0-2.66-2.95,26.33,26.33,0,0,0-4-2.56c-1.54-.81-3.21-1.67-5-2.58s-3.63-1.92-5.26-2.89a22.74,22.74,0,0,1-4.25-3.24,13.41,13.41,0,0,1-2.84-4,13.64,13.64,0,0,1,.58-11.67,13.92,13.92,0,0,1,4.25-4.49,19.21,19.21,0,0,1,6-2.64,27.75,27.75,0,0,1,6.87-.86q8,0,11.62,1.92v7.11q-4.79-3.31-12.26-3.31a20.07,20.07,0,0,0-4.14.43,11.81,11.81,0,0,0-3.69,1.41,8.13,8.13,0,0,0-2.63,2.52,6.67,6.67,0,0,0-1,3.76,7.84,7.84,0,0,0,.77,3.58,8.83,8.83,0,0,0,2.28,2.74,22.23,22.23,0,0,0,3.67,2.41q2.16,1.17,5,2.56c1.93.95,3.76,2,5.49,3a25.2,25.2,0,0,1,4.56,3.5,15.66,15.66,0,0,1,3.1,4.25,12,12,0,0,1,1.15,5.34,13.53,13.53,0,0,1-1.56,6.75,12.91,12.91,0,0,1-4.22,4.5,18.37,18.37,0,0,1-6.11,2.5,33.76,33.76,0,0,1-7.3.77,29.45,29.45,0,0,1-3.16-.21q-1.87-.19-3.84-.6a30.25,30.25,0,0,1-3.7-1A11.33,11.33,0,0,1,2276.17,394.22Z"/></g></g></svg>